<svg xmlns="http://www.w3.org/2000/svg" xmlns:xlink="http://www.w3.org/1999/xlink" version="1.1" x="0px" y="0px" viewBox="0 0 100 100" enable-background="new 0 0 100 100" xml:space="preserve"><g><path d="M42.989,47.56c0.236-0.603,0.079-1.289-0.396-1.729L17.679,22.739c-0.458-0.425-1.125-0.539-1.701-0.289   c-0.574,0.25-0.944,0.817-0.944,1.443V61.57c0,0.694,0.455,1.306,1.119,1.507c0.151,0.045,0.304,0.067,0.456,0.067   c0.517,0,1.013-0.255,1.311-0.702l9.239-13.868l14.366-0.015C42.172,48.56,42.753,48.163,42.989,47.56z M26.313,45.427   c-0.526,0-1.017,0.264-1.309,0.702l-6.821,10.238V27.5l19.328,17.915L26.313,45.427z"/><path d="M84.179,54.901l-6.866-3.964c-0.487-0.281-1.087-0.281-1.575,0c-0.487,0.281-0.788,0.801-0.788,1.364v2.301h-9.823v-9.735   h2.389c0.005,0,0.01,0,0.016,0c0.87,0,1.575-0.706,1.575-1.575c0-0.361-0.123-0.694-0.327-0.96l-3.865-6.695   c-0.281-0.487-0.8-0.787-1.363-0.787s-1.083,0.3-1.364,0.787l-3.965,6.868c-0.281,0.487-0.281,1.088,0,1.575   c0.282,0.487,0.801,0.788,1.364,0.788h2.39v9.735h-9.825v-2.301c0-0.562-0.3-1.083-0.788-1.364c-0.487-0.281-1.087-0.281-1.575,0   l-6.866,3.964c-0.487,0.281-0.788,0.801-0.788,1.364c0,0.562,0.3,1.082,0.788,1.363l6.866,3.965   c0.244,0.141,0.516,0.211,0.788,0.211c0.272,0,0.543-0.071,0.787-0.211c0.488-0.281,0.788-0.801,0.788-1.364v-2.479h9.825v9.911   h-2.39c-0.563,0-1.083,0.3-1.364,0.787c-0.281,0.487-0.281,1.088,0,1.575l3.965,6.868c0.282,0.487,0.801,0.788,1.364,0.788   s1.083-0.3,1.363-0.788l3.965-6.868c0.282-0.487,0.282-1.088,0-1.575c-0.281-0.487-0.801-0.787-1.364-0.787h-2.389v-9.911h9.823   v2.479c0,0.562,0.301,1.083,0.788,1.364c0.244,0.141,0.516,0.211,0.787,0.211c0.272,0,0.545-0.071,0.788-0.211l6.866-3.965   c0.488-0.281,0.788-0.801,0.788-1.363C84.966,55.703,84.667,55.182,84.179,54.901z M63.552,39.574l1.236,2.143h-2.474   L63.552,39.574z M49.002,57.502l-2.142-1.237l2.142-1.237V57.502z M63.552,72.956l-1.237-2.144h2.474L63.552,72.956z M78.1,57.502   v-2.474l2.143,1.237L78.1,57.502z"/></g><text x="0" y="115" fill="#000000" font-size="5px" font-weight="bold" font-family="'Helvetica Neue', Helvetica, Arial-Unicode, Arial, Sans-serif">Created by Fabiano Coelho</text><text x="0" y="120" fill="#000000" font-size="5px" font-weight="bold" font-family="'Helvetica Neue', Helvetica, Arial-Unicode, Arial, Sans-serif">from the Noun Project</text></svg>