<svg xmlns="http://www.w3.org/2000/svg" xmlns:xlink="http://www.w3.org/1999/xlink" version="1.1" x="0px" y="0px" viewBox="0 0 100 100" enable-background="new 0 0 100 100" xml:space="preserve"><g><path d="M82.833,68.167c-1.104,0-2,0.896-2,2v8h-8c-1.104,0-2,0.896-2,2s0.896,2,2,2h10c1.104,0,2-0.896,2-2v-10   C84.833,69.062,83.938,68.167,82.833,68.167z"/><path d="M61.417,78.167H38.584c-1.104,0-2,0.896-2,2s0.896,2,2,2h22.833c1.104,0,2-0.896,2-2S62.521,78.167,61.417,78.167z"/><path d="M27.167,78.167h-8v-8c0-1.104-0.896-2-2-2s-2,0.896-2,2v10c0,1.104,0.896,2,2,2h10c1.104,0,2-0.896,2-2   S28.271,78.167,27.167,78.167z"/><path d="M17.167,62.083c1.104,0,2-0.896,2-2V39.917c0-1.104-0.896-2-2-2s-2,0.896-2,2v20.166   C15.167,61.188,16.062,62.083,17.167,62.083z"/><path d="M27.167,17.833h-10c-1.104,0-2,0.896-2,2v10c0,1.104,0.896,2,2,2s2-0.896,2-2v-8h8c1.104,0,2-0.896,2-2   S28.271,17.833,27.167,17.833z"/><path d="M61.417,17.833H38.583c-1.104,0-2,0.896-2,2s0.896,2,2,2h22.834c1.104,0,2-0.896,2-2S62.521,17.833,61.417,17.833z"/><path d="M82.833,17.833h-10c-1.104,0-2,0.896-2,2s0.896,2,2,2h8v8c0,1.104,0.896,2,2,2s2-0.896,2-2v-10   C84.833,18.729,83.938,17.833,82.833,17.833z"/><path d="M82.833,37.917c-1.104,0-2,0.896-2,2v20.167c0,1.104,0.896,2,2,2s2-0.896,2-2V39.917   C84.833,38.812,83.938,37.917,82.833,37.917z"/></g><text x="0" y="115" fill="#000000" font-size="5px" font-weight="bold" font-family="'Helvetica Neue', Helvetica, Arial-Unicode, Arial, Sans-serif">Created by Fabiano Coelho</text><text x="0" y="120" fill="#000000" font-size="5px" font-weight="bold" font-family="'Helvetica Neue', Helvetica, Arial-Unicode, Arial, Sans-serif">from the Noun Project</text></svg>