<svg xmlns="http://www.w3.org/2000/svg"
    xmlns:xlink="http://www.w3.org/1999/xlink" version="1.1" x="0px" y="0px" viewBox="0 0 22 27.5" enable-background="new 0 0 22 22" xml:space="preserve">
    <g transform="translate(0,2.5)">
        <path d="M20.4,2.9l-1.3-1.3c-0.5-0.5-1.3-0.5-1.8,0L2.6,16.3l-1,4.1l4.1-1L20.4,4.7C20.9,4.2,20.9,3.4,20.4,2.9z M5.2,18.5L3,19  l0.6-2.2L15,5.3L16.7,7L5.2,18.5z M19.7,4l-2.3,2.3l-1.7-1.7L18,2.3c0.1-0.1,0.3-0.1,0.4,0l1.3,1.3c0.1,0.1,0.1,0.1,0.1,0.2  C19.8,3.8,19.8,3.9,19.7,4z"/>
    </g>
</svg>